<?xml version="1.0" standalone="no"?>
<!DOCTYPE svg PUBLIC "-//W3C//DTD SVG 20010904//EN"
 "http://www.w3.org/TR/2001/REC-SVG-20010904/DTD/svg10.dtd">
<svg version="1.0" xmlns="http://www.w3.org/2000/svg"
 width="920.000000pt" height="920.000000pt" viewBox="0 0 920.000000 920.000000"
 preserveAspectRatio="xMidYMid meet">
<metadata>
Created by potrace 1.11, written by Peter Selinger 2001-2013
</metadata>
<g transform="translate(0.000000,920.000000) scale(0.100000,-0.100000)"
fill="#000000" stroke="none">
<path d="M0 4600 l0 -4600 4600 0 4600 0 0 4600 0 4600 -4600 0 -4600 0 0
-4600z m5399 3694 c17 -9 55 -19 84 -23 29 -4 72 -17 96 -29 25 -12 51 -22 58
-22 8 0 34 -11 59 -25 25 -14 50 -25 57 -25 11 0 129 -75 182 -114 152 -114
322 -301 382 -421 47 -93 68 -138 109 -230 23 -52 62 -235 75 -353 13 -117 10
-154 -27 -357 -23 -121 -66 -251 -123 -365 -70 -140 -166 -263 -386 -495 -88
-93 -190 -201 -225 -239 -36 -38 -76 -81 -90 -96 -14 -15 -61 -65 -105 -111
-44 -46 -107 -113 -139 -149 -33 -36 -93 -101 -136 -145 -42 -44 -143 -152
-225 -240 -82 -88 -168 -179 -192 -202 -24 -22 -43 -43 -43 -46 0 -2 -49 -56
-109 -119 -61 -63 -119 -125 -130 -138 -10 -14 -73 -80 -138 -147 -65 -68
-143 -150 -173 -183 -30 -33 -93 -100 -140 -149 -145 -151 -300 -317 -314
-337 -8 -10 -17 -16 -20 -13 -3 3 -8 577 -11 1275 -3 698 -10 1451 -16 1674
-13 454 -10 534 29 760 26 145 100 325 188 457 24 36 44 69 44 74 0 5 57 66
128 136 132 133 215 197 338 261 58 30 131 62 142 62 12 0 22 4 79 34 17 9 44
16 59 16 28 0 87 16 114 31 8 4 121 8 251 8 197 1 241 -2 268 -15z m-2341
-5040 c21 -6 22 -10 22 -144 l0 -137 -160 0 -160 0 0 138 0 138 28 4 c44 7
245 7 270 1z m2938 -480 c20 -54 94 -270 164 -479 114 -336 133 -383 161 -409
l32 -28 121 4 c132 5 189 22 303 89 71 43 199 170 264 263 88 124 121 192 184
373 3 8 34 -1 97 -28 51 -21 96 -38 100 -37 4 2 -24 53 -62 113 -38 61 -65
114 -61 118 11 11 214 128 216 125 20 -24 385 -629 403 -668 23 -48 26 -68 27
-165 0 -105 -2 -114 -33 -177 -56 -114 -179 -203 -337 -243 -101 -26 -287 -24
-376 4 -78 25 -152 84 -169 136 -6 19 -13 35 -16 35 -2 0 -26 -16 -53 -35 -98
-71 -275 -138 -410 -156 -193 -26 -321 6 -403 102 l-43 49 -50 -48 c-110 -106
-136 -112 -518 -112 -164 0 -297 -3 -295 -7 56 -111 61 -169 23 -250 -45 -99
-154 -176 -325 -233 -210 -70 -533 -78 -729 -18 -203 62 -314 187 -343 386
-25 168 38 368 242 771 80 158 222 402 264 454 l23 29 104 -68 c57 -37 106
-69 108 -70 2 -2 -28 -52 -66 -111 -92 -142 -144 -236 -238 -421 -118 -236
-147 -319 -153 -428 -6 -121 13 -180 77 -244 59 -59 112 -78 258 -92 348 -33
630 115 482 253 -17 16 -50 34 -72 40 -23 6 -48 13 -55 15 -10 3 -12 33 -10
126 l3 123 480 5 c456 5 482 6 513 25 71 43 120 159 102 239 -9 41 -132 404
-191 564 -17 45 -29 88 -27 94 2 6 56 35 119 64 84 38 116 49 121 40 4 -7 24
-57 44 -112z m-2838 -144 c33 -91 90 -257 127 -370 59 -179 67 -214 67 -280 1
-192 -92 -360 -240 -432 l-67 -33 -297 -3 -297 -4 -16 -54 c-24 -85 -78 -194
-139 -285 -64 -97 -142 -189 -159 -189 -7 1 -52 39 -101 85 l-90 84 45 48 c62
67 107 135 140 212 45 105 53 98 -133 103 -188 4 -212 12 -290 96 -60 63 -94
132 -126 251 -23 87 -25 115 -26 291 -1 155 3 210 17 268 79 327 238 449 446
342 128 -65 273 -279 376 -555 51 -136 75 -234 83 -340 l7 -90 215 -3 c206 -2
217 -1 260 20 60 30 106 100 115 172 6 49 0 72 -83 317 -50 145 -102 297 -117
337 -15 41 -24 76 -21 79 14 15 232 110 238 105 3 -4 33 -81 66 -172z m3152
-1267 c29 -8 35 -13 33 -34 -1 -13 -5 -79 -9 -147 l-7 -122 -51 5 c-28 3 -65
8 -82 11 -48 7 -539 6 -578 -1 l-34 -7 -6 74 c-13 173 -13 208 -3 215 25 15
158 21 422 18 154 -2 296 -7 315 -12z m-240 -549 l0 -146 -27 7 c-34 8 -243 8
-266 -1 -16 -6 -17 6 -17 134 0 103 3 142 13 145 6 3 76 6 155 6 l142 1 0
-146z"/>
<path d="M4955 7880 c-33 -5 -82 -18 -108 -29 -27 -12 -54 -21 -61 -21 -7 0
-33 -11 -58 -24 -24 -13 -55 -27 -69 -31 -13 -4 -33 -16 -44 -26 -11 -10 -49
-43 -85 -71 -176 -142 -274 -299 -334 -534 -25 -96 -22 -314 5 -407 11 -39 25
-88 29 -107 10 -39 52 -128 79 -169 63 -93 86 -124 119 -162 53 -61 115 -119
128 -119 5 0 19 -8 30 -18 29 -26 119 -82 133 -82 6 0 23 -7 37 -16 14 -9 48
-23 77 -30 29 -7 77 -20 107 -29 72 -20 303 -16 410 8 67 16 158 49 215 80 11
6 35 19 54 29 19 9 44 26 55 36 12 11 30 24 40 29 40 22 150 141 203 221 144
219 189 442 145 727 -24 152 -114 326 -244 466 -33 36 -117 107 -173 145 -59
40 -202 101 -295 125 -50 13 -323 20 -395 9z"/>
<path d="M7412 2418 c-12 -45 -55 -149 -94 -232 -77 -162 -90 -215 -64 -263
37 -73 190 -84 307 -22 82 44 114 92 113 168 0 53 -6 65 -115 243 -63 103
-116 188 -119 188 -3 0 -15 -37 -28 -82z"/>
<path d="M1866 2485 c-31 -34 -45 -85 -55 -212 -18 -223 24 -405 109 -477 31
-25 35 -26 167 -26 l135 0 -4 118 c-4 99 -10 131 -38 212 -73 211 -203 410
-267 410 -13 0 -34 -11 -47 -25z"/>
</g>
</svg>
